<svg width="9" height="15" viewBox="0 0 9 15" fill="none" xmlns="http://www.w3.org/2000/svg">
<path d="M3.87971 14.4096V0.562195H4.76681V14.4096H3.87971ZM6.43824 4.9923C6.38776 4.5199 6.175 4.15208 5.79996 3.88883C5.42853 3.62558 4.94531 3.49396 4.35031 3.49396C3.932 3.49396 3.57319 3.55707 3.27388 3.68328C2.97458 3.8095 2.74559 3.98078 2.58692 4.19715C2.42825 4.41352 2.34711 4.66054 2.34351 4.93821C2.34351 5.169 2.3958 5.36914 2.50037 5.53862C2.60856 5.70811 2.7546 5.85236 2.93851 5.97136C3.12243 6.08675 3.32617 6.18412 3.54975 6.26345C3.77333 6.34279 3.99871 6.4095 4.2259 6.46359L5.26445 6.72323C5.68276 6.82059 6.08484 6.95222 6.4707 7.1181C6.86016 7.28398 7.20815 7.49313 7.51467 7.74556C7.82479 7.99799 8.07001 8.3027 8.25031 8.65971C8.43062 9.01671 8.52077 9.43502 8.52077 9.91463C8.52077 10.5637 8.35489 11.1353 8.02313 11.6293C7.69136 12.1198 7.21175 12.5038 6.58429 12.7815C5.96043 13.0556 5.20495 13.1926 4.31785 13.1926C3.45599 13.1926 2.70772 13.0592 2.07305 12.7923C1.44198 12.5255 0.947944 12.136 0.590939 11.6239C0.23754 11.1119 0.0464168 10.488 0.0175679 9.75236H1.99191C2.02076 10.1382 2.13976 10.4592 2.34892 10.7152C2.55807 10.9712 2.83033 11.1623 3.1657 11.2886C3.50467 11.4148 3.88332 11.4779 4.30162 11.4779C4.73796 11.4779 5.12021 11.413 5.44837 11.2832C5.78013 11.1497 6.03977 10.9658 6.22728 10.7314C6.4148 10.4934 6.51036 10.2157 6.51397 9.89841C6.51036 9.60992 6.42562 9.37192 6.25974 9.1844C6.09386 8.99327 5.86126 8.83461 5.56196 8.70839C5.26626 8.57857 4.92007 8.46318 4.5234 8.36221L3.26306 8.03766C2.35072 7.80326 1.6295 7.44806 1.0994 6.97205C0.572908 6.49244 0.309663 5.85596 0.309663 5.06262C0.309663 4.40991 0.486362 3.83834 0.83976 3.34791C1.19677 2.85748 1.68179 2.47704 2.29482 2.20658C2.90786 1.93252 3.60204 1.79548 4.37735 1.79548C5.16348 1.79548 5.85225 1.93252 6.44365 2.20658C7.03866 2.47704 7.50565 2.85388 7.84462 3.33709C8.1836 3.81671 8.35849 4.36844 8.36931 4.9923H6.43824Z" fill="#0D1B39"/>
</svg>
