<svg width="22" height="20" viewBox="0 0 22 20" fill="none" xmlns="http://www.w3.org/2000/svg">
<path fill-rule="evenodd" clip-rule="evenodd" d="M7.26785 0H15.3036C19.0013 0 22 2.79875 22 6.25V13.75C22 17.2013 19.0013 20 15.3036 20H7.26785C3.57009 20 0.571426 17.2013 0.571426 13.75V6.25C0.571426 2.79875 3.57009 0 7.26785 0ZM15.3036 18.125C17.8884 18.125 19.9911 16.1625 19.9911 13.75V6.25C19.9911 3.8375 17.8884 1.875 15.3036 1.875H7.26786C4.68303 1.875 2.58035 3.8375 2.58035 6.25V13.75C2.58035 16.1625 4.68303 18.125 7.26786 18.125H15.3036Z" fill="#1E2833"/>
<path fill-rule="evenodd" clip-rule="evenodd" d="M5.92857 10C5.92857 7.23875 8.32723 5 11.2857 5C14.2442 5 16.6429 7.23875 16.6429 10C16.6429 12.7613 14.2442 15 11.2857 15C8.32723 15 5.92857 12.7613 5.92857 10ZM7.9375 10C7.9375 11.7225 9.44018 13.125 11.2857 13.125C13.1313 13.125 14.6339 11.7225 14.6339 10C14.6339 8.27625 13.1313 6.875 11.2857 6.875C9.44018 6.875 7.9375 8.27625 7.9375 10Z" fill="#1E2833"/>
<ellipse cx="17.0449" cy="4.62499" rx="0.713839" ry="0.66625" fill="#1E2833"/>
</svg>
