<svg width="22" height="16" viewBox="0 0 22 16" fill="none" xmlns="http://www.w3.org/2000/svg">
<path d="M21.4524 1.881C20.6732 2.2 19.843 2.41144 18.9774 2.51411C19.8679 2.01789 20.5475 1.23811 20.867 0.298222C20.0368 0.760222 19.1201 1.08656 18.1432 1.26867C17.3549 0.485222 16.2313 0 15.0056 0C12.6275 0 10.713 1.80156 10.713 4.01011C10.713 4.32789 10.7418 4.63344 10.8125 4.92433C7.24143 4.76178 4.08155 3.16433 1.95881 0.730889C1.58821 1.331 1.37083 2.01789 1.37083 2.75733C1.37083 4.14578 2.1369 5.37656 3.27881 6.08911C2.58869 6.07689 1.91167 5.88989 1.3381 5.59533C1.3381 5.60756 1.3381 5.62344 1.3381 5.63933C1.3381 7.58756 2.82702 9.20578 4.77952 9.57856C4.42988 9.66778 4.04881 9.71056 3.65333 9.71056C3.37833 9.71056 3.10071 9.69589 2.84012 9.64211C3.39667 11.2298 4.97595 12.397 6.85381 12.4349C5.39238 13.5019 3.53679 14.1448 1.52798 14.1448C1.17571 14.1448 0.837857 14.1301 0.5 14.0898C2.40274 15.235 4.65774 15.8889 7.08952 15.8889C14.9938 15.8889 19.3152 9.77778 19.3152 4.48067C19.3152 4.30344 19.3087 4.13233 19.2995 3.96244C20.152 3.39778 20.8683 2.69256 21.4524 1.881Z" fill="#1E2833"/>
</svg>
